<?xml version="1.0" encoding="UTF-8" standalone="no"?>
<!-- Created with Inkscape (http://www.inkscape.org/) -->

<svg
   version="1.1"
   id="svg2"
   width="192"
   height="192"
   viewBox="0 0 192 192"
   sodipodi:docname="logo.svg"
   inkscape:export-filename="/home/marcos/Project/play_grupetto/frontend/public/logo512.png"
   inkscape:export-xdpi="96"
   inkscape:export-ydpi="96"
   inkscape:version="1.1.1 (3bf5ae0d25, 2021-09-20)"
   xmlns:inkscape="http://www.inkscape.org/namespaces/inkscape"
   xmlns:sodipodi="http://sodipodi.sourceforge.net/DTD/sodipodi-0.dtd"
   xmlns="http://www.w3.org/2000/svg"
   xmlns:svg="http://www.w3.org/2000/svg">
  <sodipodi:namedview
     id="namedview7"
     pagecolor="#505050"
     bordercolor="#ffffff"
     borderopacity="1"
     inkscape:pageshadow="0"
     inkscape:pageopacity="0"
     inkscape:pagecheckerboard="1"
     showgrid="false"
     width="192px"
     inkscape:zoom="1.2617188"
     inkscape:cx="-13.869969"
     inkscape:cy="256"
     inkscape:window-width="1920"
     inkscape:window-height="1057"
     inkscape:window-x="0"
     inkscape:window-y="0"
     inkscape:window-maximized="1"
     inkscape:current-layer="svg2" />
  <defs
     id="defs6" />
  <g
     id="g8"
     transform="matrix(0.3727674,0,0,0.3727674,0.57154393,0.57154393)"
     inkscape:export-filename="/home/marcos/Project/play_grupetto/frontend/public/logo192.png"
     inkscape:export-xdpi="100.80029"
     inkscape:export-ydpi="100.80029">
    <rect
       style="opacity:1;fill:#ffffff;fill-opacity:0.905882;stroke:#808080;stroke-width:3.77953"
       id="rect206"
       width="486.75858"
       height="486.75858"
       x="12.620713"
       y="12.620713"
       ry="132.46242"
       rx="132.46242" />
    <path
       style="opacity:1;fill:#000000;stroke-width:1"
       d="m 101.83265,368.55536 c -19.067958,-3.45927 -39.716252,-15.4761 -52.914733,-30.79513 -9.109116,-10.57264 -17.772545,-25.9947 -22.637055,-40.29695 -6.555388,-19.27364 -8.188325,-48.35527 -3.74279,-66.65684 4.606405,-18.96385 11.965311,-33.88355 23.706216,-48.06282 17.237388,-20.81725 45.84641,-36.54012 72.379512,-39.77813 43.21375,-5.27364 81.37018,9.06682 127.94123,48.08464 11.59691,9.71604 18.45057,15.95207 43.18483,39.29318 34.79396,32.83418 49.78312,45.34691 65.23424,54.45655 25.79768,15.20976 52.36072,21.06382 72.36401,15.94784 23.67826,-6.05588 38.75667,-23.63947 38.75667,-45.19586 0,-21.94978 -14.59846,-41.16725 -36.06149,-47.47153 -2.84006,-0.8342 -5.45433,-1.51673 -5.80951,-1.51673 -0.35517,0 -2.40542,2.72093 -4.5561,6.04649 -6.69465,10.35178 -14.4923,15.96383 -26.50658,19.07704 -11.27426,2.92146 -25.37328,1.06385 -35.69009,-4.70233 -21.05944,-11.77035 -29.00003,-40.44236 -16.61812,-60.00491 9.55151,-15.09071 30.46585,-25.06391 52.56036,-25.06391 42.16325,0 76.89084,27.32804 92.30019,72.6334 8.27934,24.34228 8.19675,57.73223 -0.198,80.04915 -10.52546,27.98129 -30.79035,50.47099 -56.9102,63.15818 -16.17042,7.85446 -28.53831,11.03291 -46.64744,11.98803 -35.98116,1.89774 -71.92372,-12.7579 -112.70405,-45.95526 -14.78071,-12.03229 -20.49338,-17.17879 -48.91501,-44.06721 -26.52589,-25.09494 -36.66837,-34.03567 -48.48388,-42.73915 -25.47647,-18.76638 -48.59804,-27.56742 -72.423514,-27.56742 -22.623011,0 -40.532504,10.18319 -49.374624,28.07401 -3.320901,6.71938 -3.672245,8.18007 -4.013956,16.68767 -0.45309,11.28063 1.627248,19.32356 7.243974,28.00638 6.799924,10.51191 19.653815,19.60881 31.31203,22.16003 l 4.012983,0.87818 2.575458,-4.39469 C 99.506,286.64938 113.2537,278.81681 129.82986,278.81681 c 22.97885,0 40.29672,12.84859 45.76593,33.95496 9.25147,35.70258 -28.22584,64.04489 -73.76314,55.78359 z"
       id="path48" />
  </g>
</svg>
